<mxfile host="www.draw.io" modified="2019-12-19T23:23:23.743Z" agent="Mozilla/5.0 (Macintosh; Intel Mac OS X 10_14_6) AppleWebKit/537.36 (KHTML, like Gecko) Chrome/79.0.3945.79 Safari/537.36" etag="fTCNvj0vTNhQ-KCZQE4H" version="12.4.3" type="github" pages="1">
  <diagram id="Ywn3MmMdWa0VHt4r2IpN" name="Page-1">
    <mxGraphModel dx="801" dy="528" grid="1" gridSize="10" guides="1" tooltips="1" connect="1" arrows="1" fold="1" page="1" pageScale="1" pageWidth="827" pageHeight="1169" math="0" shadow="0">
      <root>
        <mxCell id="0"/>
        <mxCell id="1" parent="0"/>
        <mxCell id="Nj9hIK9nNlG0kNTi619n-14" style="edgeStyle=orthogonalEdgeStyle;rounded=0;orthogonalLoop=1;jettySize=auto;html=1;entryX=0.5;entryY=0;entryDx=0;entryDy=0;" parent="1" target="Nj9hIK9nNlG0kNTi619n-2" edge="1">
          <mxGeometry relative="1" as="geometry">
            <mxPoint x="419" y="180" as="sourcePoint"/>
            <Array as="points">
              <mxPoint x="419" y="210"/>
              <mxPoint x="179" y="210"/>
            </Array>
          </mxGeometry>
        </mxCell>
        <mxCell id="Nj9hIK9nNlG0kNTi619n-15" style="edgeStyle=orthogonalEdgeStyle;rounded=0;orthogonalLoop=1;jettySize=auto;html=1;" parent="1" target="Nj9hIK9nNlG0kNTi619n-10" edge="1">
          <mxGeometry relative="1" as="geometry">
            <mxPoint x="419" y="190" as="sourcePoint"/>
            <Array as="points">
              <mxPoint x="419" y="210"/>
              <mxPoint x="339" y="210"/>
            </Array>
          </mxGeometry>
        </mxCell>
        <mxCell id="Nj9hIK9nNlG0kNTi619n-16" style="edgeStyle=orthogonalEdgeStyle;rounded=0;orthogonalLoop=1;jettySize=auto;html=1;entryX=0.5;entryY=0;entryDx=0;entryDy=0;" parent="1" target="Nj9hIK9nNlG0kNTi619n-11" edge="1">
          <mxGeometry relative="1" as="geometry">
            <mxPoint x="419" y="190" as="sourcePoint"/>
            <Array as="points">
              <mxPoint x="419" y="210"/>
              <mxPoint x="497" y="210"/>
            </Array>
          </mxGeometry>
        </mxCell>
        <mxCell id="Nj9hIK9nNlG0kNTi619n-17" style="edgeStyle=orthogonalEdgeStyle;rounded=0;orthogonalLoop=1;jettySize=auto;html=1;" parent="1" target="Nj9hIK9nNlG0kNTi619n-8" edge="1">
          <mxGeometry relative="1" as="geometry">
            <mxPoint x="430" y="210" as="sourcePoint"/>
          </mxGeometry>
        </mxCell>
        <mxCell id="Nj9hIK9nNlG0kNTi619n-1" value="&lt;font style=&quot;font-size: 20px&quot;&gt;Index.html&lt;/font&gt;" style="pointerEvents=1;shadow=0;dashed=0;html=1;strokeColor=none;fillColor=#505050;labelPosition=center;verticalLabelPosition=bottom;verticalAlign=top;outlineConnect=0;align=center;shape=mxgraph.office.concepts.home;" parent="1" vertex="1">
          <mxGeometry x="393" y="110" width="51" height="50" as="geometry"/>
        </mxCell>
        <mxCell id="Nj9hIK9nNlG0kNTi619n-2" value="&lt;font style=&quot;font-size: 20px&quot;&gt;About.html&lt;/font&gt;" style="shape=image;html=1;verticalAlign=top;verticalLabelPosition=bottom;labelBackgroundColor=#ffffff;imageAspect=0;aspect=fixed;image=https://cdn2.iconfinder.com/data/icons/free-1/128/Page__web__web_page-128.png" parent="1" vertex="1">
          <mxGeometry x="118.5" y="270" width="120" height="120" as="geometry"/>
        </mxCell>
        <mxCell id="Nj9hIK9nNlG0kNTi619n-8" value="&lt;font style=&quot;font-size: 20px&quot;&gt;Contact.html&lt;/font&gt;" style="shape=image;html=1;verticalAlign=top;verticalLabelPosition=bottom;labelBackgroundColor=#ffffff;imageAspect=0;aspect=fixed;image=https://cdn2.iconfinder.com/data/icons/free-1/128/Page__web__web_page-128.png" parent="1" vertex="1">
          <mxGeometry x="598.5" y="270" width="120" height="120" as="geometry"/>
        </mxCell>
        <mxCell id="Nj9hIK9nNlG0kNTi619n-10" value="Projects.html" style="shape=image;html=1;verticalAlign=top;verticalLabelPosition=bottom;labelBackgroundColor=#ffffff;imageAspect=0;aspect=fixed;image=https://cdn2.iconfinder.com/data/icons/free-1/128/Page__web__web_page-128.png;fontSize=20;" parent="1" vertex="1">
          <mxGeometry x="278.5" y="270" width="120" height="120" as="geometry"/>
        </mxCell>
        <mxCell id="cv10CCe2EIrAnK9zFh6I-7" value="" style="edgeStyle=orthogonalEdgeStyle;rounded=0;orthogonalLoop=1;jettySize=auto;html=1;" edge="1" parent="1" source="Nj9hIK9nNlG0kNTi619n-11" target="cv10CCe2EIrAnK9zFh6I-6">
          <mxGeometry relative="1" as="geometry"/>
        </mxCell>
        <mxCell id="Nj9hIK9nNlG0kNTi619n-11" value="&lt;font style=&quot;font-size: 20px&quot;&gt;Blogs.html&lt;/font&gt;" style="shape=image;html=1;verticalAlign=top;verticalLabelPosition=bottom;labelBackgroundColor=#ffffff;imageAspect=0;aspect=fixed;image=https://cdn2.iconfinder.com/data/icons/free-1/128/Page__web__web_page-128.png" parent="1" vertex="1">
          <mxGeometry x="437" y="270" width="120" height="120" as="geometry"/>
        </mxCell>
        <mxCell id="cv10CCe2EIrAnK9zFh6I-6" value="&lt;font style=&quot;font-size: 20px&quot;&gt;Blog.html&lt;/font&gt;" style="shape=image;html=1;verticalAlign=top;verticalLabelPosition=bottom;labelBackgroundColor=#ffffff;imageAspect=0;aspect=fixed;image=https://cdn2.iconfinder.com/data/icons/free-1/128/Page__web__web_page-128.png" vertex="1" parent="1">
          <mxGeometry x="437" y="470" width="120" height="120" as="geometry"/>
        </mxCell>
        <UserObject label="&lt;font style=&quot;font-size: 20px&quot;&gt;https://hirengondhiya.github.io/&lt;/font&gt;" link="https://hirengondhiya.github.io/" id="Nj9hIK9nNlG0kNTi619n-21">
          <mxCell style="text;html=1;" parent="1" vertex="1">
            <mxGeometry x="280.25" y="80" width="276.5" height="30" as="geometry"/>
          </mxCell>
        </UserObject>
        <mxCell id="Nj9hIK9nNlG0kNTi619n-25" value="Site Map" style="text;strokeColor=none;fillColor=none;align=left;verticalAlign=top;spacingLeft=4;spacingRight=4;overflow=hidden;rotatable=0;points=[[0,0.5],[1,0.5]];portConstraint=eastwest;fontSize=20;" parent="1" vertex="1">
          <mxGeometry x="372.75" y="40" width="91.5" height="26" as="geometry"/>
        </mxCell>
      </root>
    </mxGraphModel>
  </diagram>
</mxfile>
